<svg xmlns="http://www.w3.org/2000/svg" viewBox="0 0 512 512"><defs><style>.cls-1{fill:gray;}.cls-2{fill:#fff;}</style></defs><title>アセット 6</title><g id="レイヤー_2" data-name="レイヤー 2"><g id="レイヤー_1-2" data-name="レイヤー 1"><rect class="cls-1" width="512" height="512" rx="40" ry="40"/><path class="cls-2" d="M422.12,192.68c0-28.05-23.37-51-51.93-51,0,0-69.24-4.25-114.67-4.25s-114.67,4.25-114.67,4.25c-28.56,0-51.93,23-51.93,51,0,0-4.33,35.62-4.33,63.75s4.33,63.75,4.33,63.75c0,28.05,23.37,51,51.93,51,0,0,73.56,4.25,114.67,4.25s114.67-4.25,114.67-4.25c28.56,0,51.93-23,51.93-51,0,0,4.33-35.62,4.33-63.75S422.12,192.68,422.12,192.68ZM223.06,301.87V211l86.55,47.6Z"/></g></g></svg>