<svg xmlns="http://www.w3.org/2000/svg" viewBox="0 0 512 512"><defs><style>.cls-1{fill:gray;}.cls-2{fill:#fff;}</style></defs><title>アセット 3</title><g id="レイヤー_2" data-name="レイヤー 2"><g id="レイヤー_1-2" data-name="レイヤー 1"><rect class="cls-1" width="512" height="512" rx="40" ry="40"/><path class="cls-2" d="M433.76,146c-9,9-40.53,9-40.53,9s27-13.51,27-36c-7,7-33,11.26-44.22,12.83a74.32,74.32,0,0,0-125.42,67.34l-10.5.9S145.55,186.5,105,123.45c-31.52,63,18,99.07,18,99.07s-18,0-31.52-9c0,58.54,58.54,72.05,58.54,72.05s-18,4.5-36,0c18,54,72.05,54,72.05,54s-45,36-108.08,27c54,40.53,117.09,40.53,162.12,31.52C406.74,348.62,397.74,186.5,397.74,186.5h-.11c0-.76.11-1.5.11-2.26,0-.26,0-.51,0-.76A148.83,148.83,0,0,0,433.76,146Z"/></g></g></svg>