<svg xmlns="http://www.w3.org/2000/svg" viewBox="0 0 512 512"><defs><style>.cls-1{fill:gray;}.cls-2{fill:#fff;}</style></defs><title>アセット 4</title><g id="レイヤー_2" data-name="レイヤー 2"><g id="レイヤー_1-2" data-name="レイヤー 1"><rect class="cls-1" width="512" height="512" rx="40" ry="40"/><path class="cls-2" d="M329.29,429H181.72A99.83,99.83,0,0,1,82,329.29V181.72A99.83,99.83,0,0,1,181.72,82H329.29A99.83,99.83,0,0,1,429,181.72V329.29A99.83,99.83,0,0,1,329.29,429ZM181.72,113.91a67.88,67.88,0,0,0-67.8,67.8V329.29a67.88,67.88,0,0,0,67.8,67.8H329.29a67.88,67.88,0,0,0,67.8-67.8V181.72a67.88,67.88,0,0,0-67.8-67.8Z"/><path class="cls-2" d="M255.5,347.24a91.74,91.74,0,1,1,91.74-91.74A91.84,91.84,0,0,1,255.5,347.24Zm0-151.56a59.83,59.83,0,1,0,59.83,59.83A59.9,59.9,0,0,0,255.5,195.68Z"/><circle class="cls-2" cx="348.24" cy="159.78" r="21.94"/></g></g></svg>