<svg xmlns="http://www.w3.org/2000/svg" viewBox="0 0 512 512"><defs><style>.cls-1{fill:gray;}.cls-2{fill:#fff;}</style></defs><title>アセット 5</title><g id="レイヤー_2" data-name="レイヤー 2"><g id="レイヤー_1-2" data-name="レイヤー 1"><rect class="cls-1" width="512" height="512" rx="40" ry="40"/><path class="cls-2" d="M256.47,396.82A141.5,141.5,0,1,1,398,255.32v19.57a53.45,53.45,0,1,1-106.9,0V255.32a34.61,34.61,0,1,0-27.61,33.89,19.21,19.21,0,0,1,7.71,37.64,73,73,0,1,1,58.3-71.53v19.57a15,15,0,0,0,30.09,0V255.32a103,103,0,1,0-63.63,95.28,19.2,19.2,0,1,1,14.71,35.47,141,141,0,0,1-54.13,10.75Z"/></g></g></svg>