<svg xmlns="http://www.w3.org/2000/svg" viewBox="43 26 213.9 46.7">
    <defs>
        <style>.logoSvg{fill:#fff;}</style>
    </defs>
    <g transform="translate(43 26)">
        <path class="logoSvg" d="M39.1,31.3h1.3a1.445,1.445,0,0,0,.7-.2,1.024,1.024,0,0,0,.5-.6.988.988,0,0,0,.2-.6l-4.3-10h3.4l2.6,7,2.4-7h3.3l-4,9.4a12.835,12.835,0,0,1-1.9,3.4,4.516,4.516,0,0,1-2.8.7H39V31.3Z"/>
        <path class="logoSvg" d="M61.9,28.2a6.112,6.112,0,0,1-4.5,1.5,6.112,6.112,0,0,1-4.5-1.5,4.91,4.91,0,0,1-1.5-3.6,4.691,4.691,0,0,1,1.5-3.5,6.112,6.112,0,0,1,4.5-1.5,6.112,6.112,0,0,1,4.5,1.5,4.852,4.852,0,0,1,1.5,3.5A4.606,4.606,0,0,1,61.9,28.2Zm-2.4-1.3a3.069,3.069,0,0,0,.7-2.2,2.918,2.918,0,0,0-.7-2.2,3.156,3.156,0,0,0-4.2,0,3.069,3.069,0,0,0-.7,2.2,2.918,2.918,0,0,0,.7,2.2,3.156,3.156,0,0,0,4.2,0Z"/>
        <path class="logoSvg" d="M73.6,19.9a4.032,4.032,0,0,1,1.8,1.4V19.9h3v9a4.446,4.446,0,0,1-.8,2.8c-.9,1.1-2.6,1.6-5,1.6a8.15,8.15,0,0,1-3.7-.7,2.8,2.8,0,0,1-1.6-2.2h3.3a.918.918,0,0,0,.4.6,3.419,3.419,0,0,0,1.7.3,2.414,2.414,0,0,0,2.2-.9,4.14,4.14,0,0,0,.4-1.9V28a3.819,3.819,0,0,1-.9.9,4.265,4.265,0,0,1-2.4.6,4.835,4.835,0,0,1-3.6-1.3,4.6,4.6,0,0,1-1.3-3.5,5.154,5.154,0,0,1,1.3-3.6,4.619,4.619,0,0,1,3.7-1.4A2.622,2.622,0,0,1,73.6,19.9Zm1,6.8a2.674,2.674,0,0,0,.7-2.1,2.817,2.817,0,0,0-.7-2.1,2.489,2.489,0,0,0-1.9-.7A2.2,2.2,0,0,0,70.5,23a3.808,3.808,0,0,0-.3,1.6,3.339,3.339,0,0,0,.3,1.5,2.2,2.2,0,0,0,2.2,1.2A2.119,2.119,0,0,0,74.6,26.7Z"/>
        <path class="logoSvg" d="M88.1,23.6a7.072,7.072,0,0,0,1.2-.2c.4-.2.7-.4.7-.7a.792.792,0,0,0-.5-.8,2.988,2.988,0,0,0-1.5-.2,2.364,2.364,0,0,0-1.6.4,1.268,1.268,0,0,0-.4.9H83a3.373,3.373,0,0,1,.9-2,5.839,5.839,0,0,1,4.2-1.3,8.97,8.97,0,0,1,3.4.6A2.289,2.289,0,0,1,93,22.6v5.5a1.166,1.166,0,0,0,.2.7,1.38,1.38,0,0,0,.4.3v.3H90.3a1.69,1.69,0,0,1-.2-.5c0-.2-.1-.4-.1-.6a5.6,5.6,0,0,1-1.5,1,5.45,5.45,0,0,1-2.2.5,4.209,4.209,0,0,1-2.6-.7,2.393,2.393,0,0,1-1-2.1,2.808,2.808,0,0,1,1.7-2.6,7.731,7.731,0,0,1,2.7-.6ZM90,24.8a1.421,1.421,0,0,1-.6.2c-.2.1-.5.1-.8.2l-.7.1a7.828,7.828,0,0,0-1.4.3,1.081,1.081,0,0,0-.7,1.1.975.975,0,0,0,.4.9,2.016,2.016,0,0,0,1.1.3,4.136,4.136,0,0,0,1.9-.5,1.752,1.752,0,0,0,.9-1.7v-.9Z"/>
        <path class="logoSvg" d="M107.1,30.5a4.194,4.194,0,0,1-.9,1.4,3.54,3.54,0,0,1-1.6.9,7.55,7.55,0,0,1-2.3.3,9.852,9.852,0,0,1-1.7-.2,8.8,8.8,0,0,1-1.5-.5,3.126,3.126,0,0,1-1.1-.9,2.106,2.106,0,0,1-.5-1.3H99a3.552,3.552,0,0,0,.4.9,5.547,5.547,0,0,0,.8.6c.3.1.6.2,1,.3a4.1,4.1,0,0,0,1.1.1,3.767,3.767,0,0,0,2.8-.9,3.573,3.573,0,0,0,.9-2.6V27.3h0a3.76,3.76,0,0,1-1.4,1.4,5.091,5.091,0,0,1-2.2.5,5.27,5.27,0,0,1-2.3-.4,4.355,4.355,0,0,1-1.6-1,3.766,3.766,0,0,1-.9-1.5,5.55,5.55,0,0,1,0-3.6,3.956,3.956,0,0,1,1-1.5,4.355,4.355,0,0,1,1.6-1,7.19,7.19,0,0,1,2.2-.4,4.869,4.869,0,0,1,1.2.1,3,3,0,0,1,1,.4,5.547,5.547,0,0,1,.8.6c.2.2.4.5.6.7h0V20h1.4v8.5A6.013,6.013,0,0,1,107.1,30.5ZM103.9,28a3.134,3.134,0,0,0,1.1-.8,3.458,3.458,0,0,0,.7-1.2,3.178,3.178,0,0,0,.2-1.4,6.753,6.753,0,0,0-.2-1.4,2.281,2.281,0,0,0-.6-1.2,3.126,3.126,0,0,0-1.1-.9,4.967,4.967,0,0,0-3.4,0,2.73,2.73,0,0,0-1.2.9,7.458,7.458,0,0,0-.7,1.2,6.753,6.753,0,0,0-.2,1.4,6.753,6.753,0,0,0,.2,1.4,3.746,3.746,0,0,0,.7,1.2,3.6,3.6,0,0,0,1.2.8,4.309,4.309,0,0,0,1.7.3A2.035,2.035,0,0,0,103.9,28Z"/>
        <path class="logoSvg" d="M113.3,26.4a3.746,3.746,0,0,0,.7,1.2,6.233,6.233,0,0,0,1.2.9,4.309,4.309,0,0,0,1.7.3,4.265,4.265,0,0,0,2.4-.6,2.981,2.981,0,0,0,1.2-1.7h1.4a3.832,3.832,0,0,1-1.6,2.4,5.389,5.389,0,0,1-3.3.9,5.27,5.27,0,0,1-2.3-.4,3.807,3.807,0,0,1-1.6-1.1,4.172,4.172,0,0,1-.9-1.6,5.822,5.822,0,0,1-.3-1.9,5.662,5.662,0,0,1,.3-1.8,5.071,5.071,0,0,1,.9-1.6,3.807,3.807,0,0,1,1.6-1.1,5.558,5.558,0,0,1,2.3-.4,7.308,7.308,0,0,1,2.3.4,3.978,3.978,0,0,1,1.6,1.2,4.608,4.608,0,0,1,.9,1.7,4.133,4.133,0,0,1,.2,1.9h-8.8A1.99,1.99,0,0,0,113.3,26.4Zm6.9-3.5a4.129,4.129,0,0,0-.7-1.1,2.589,2.589,0,0,0-1.1-.7,3.9,3.9,0,0,0-3,0,4.129,4.129,0,0,0-1.1.7,2.589,2.589,0,0,0-.7,1.1,5.638,5.638,0,0,0-.4,1.2h7.4A5.638,5.638,0,0,1,120.2,22.9Z"/>
        <path class="logoSvg" d="M127.3,20.2v1.6h0a3.151,3.151,0,0,1,1.4-1.4,5.45,5.45,0,0,1,2.2-.5,5.618,5.618,0,0,1,2,.3,3.991,3.991,0,0,1,1.3.7,2.589,2.589,0,0,1,.7,1.1,6.052,6.052,0,0,1,.2,1.5v5.9h-1.4V23.6a3.749,3.749,0,0,0-.1-1.1,2.24,2.24,0,0,0-1.4-1.5,5.212,5.212,0,0,0-1.4-.2,6.052,6.052,0,0,0-1.5.2,4.129,4.129,0,0,0-1.1.7,3.591,3.591,0,0,0-.7,1,2.768,2.768,0,0,0-.3,1.3v5.4h-1.4V20.2Z"/>
        <path class="logoSvg" d="M141,26.4a3.746,3.746,0,0,0,.7,1.2,6.233,6.233,0,0,0,1.2.9,4.309,4.309,0,0,0,1.7.3,4.265,4.265,0,0,0,2.4-.6,2.981,2.981,0,0,0,1.2-1.7h1.4a3.832,3.832,0,0,1-1.6,2.4,5.51,5.51,0,0,1-3.4.9,5.27,5.27,0,0,1-2.3-.4,3.807,3.807,0,0,1-1.6-1.1,4.172,4.172,0,0,1-.9-1.6,5.822,5.822,0,0,1-.3-1.9,5.663,5.663,0,0,1,.3-1.8,5.071,5.071,0,0,1,.9-1.6,3.807,3.807,0,0,1,1.6-1.1,5.558,5.558,0,0,1,2.3-.4,7.308,7.308,0,0,1,2.3.4,4.813,4.813,0,0,1,1.6,1.2,4.608,4.608,0,0,1,.9,1.7,4.133,4.133,0,0,1,.2,1.9h-8.8A2.09,2.09,0,0,0,141,26.4Zm6.8-3.5a4.129,4.129,0,0,0-.7-1.1,2.589,2.589,0,0,0-1.1-.7,3.9,3.9,0,0,0-3,0,4.129,4.129,0,0,0-1.1.7,2.589,2.589,0,0,0-.7,1.1,5.637,5.637,0,0,0-.4,1.2h7.4A5.637,5.637,0,0,0,147.8,22.9Z"/>
        <path class="logoSvg" d="M154.8,20.2v2.2h0a3.778,3.778,0,0,1,1.6-1.7,4.529,4.529,0,0,1,2.7-.5v1.1a4.678,4.678,0,0,0-1.7.2,3.991,3.991,0,0,0-1.3.7,3.126,3.126,0,0,0-.9,1.1,3.079,3.079,0,0,0-.3,1.3v4.9h-1.4V20.3h1.3Z"/>
        <path class="logoSvg" d="M163,21.6a3.178,3.178,0,0,1,1-1,5.782,5.782,0,0,1,1.4-.5,8.969,8.969,0,0,1,1.8-.2,7.569,7.569,0,0,1,1.5.1,4.951,4.951,0,0,1,1.3.4,2.836,2.836,0,0,1,1,.9,3.313,3.313,0,0,1,.4,1.5v4.9c0,.5.3.7.8.7.2,0,.3,0,.4-.1v.9c-.2,0-.3,0-.4.1h-.5a1.949,1.949,0,0,1-.8-.1,2.186,2.186,0,0,1-.5-.3.764.764,0,0,1-.2-.5c0-.2-.1-.4-.1-.7h0a3.043,3.043,0,0,1-.8.8,7.018,7.018,0,0,1-.9.6,3.582,3.582,0,0,1-1.1.4,6.149,6.149,0,0,1-1.4.1,3.887,3.887,0,0,1-1.5-.2,3.337,3.337,0,0,1-1.2-.5,3.043,3.043,0,0,1-.8-.8,2.133,2.133,0,0,1-.3-1.2,2.456,2.456,0,0,1,.5-1.5,3.224,3.224,0,0,1,1.4-.8,10.084,10.084,0,0,1,2-.4,16.352,16.352,0,0,1,2.2-.2c.3,0,.6-.1.8-.1a.764.764,0,0,0,.5-.2c.1-.1.3-.2.3-.4a1.268,1.268,0,0,0,.1-.6,2,2,0,0,0-.2-.9l-.6-.6-.9-.3a5.059,5.059,0,0,0-3.2.4,1.893,1.893,0,0,0-.9,1.6h-1.4A1.943,1.943,0,0,1,163,21.6Zm6.9,2.7a2.186,2.186,0,0,1-.5.3,1.7,1.7,0,0,1-.7.1,11.019,11.019,0,0,1-1.8.2c-.6.1-1.2.2-1.7.3a3.1,3.1,0,0,0-1.3.6,1.231,1.231,0,0,0-.5,1,2.354,2.354,0,0,0,.2.8,1.7,1.7,0,0,0,.6.6,2.01,2.01,0,0,0,.8.4,2.769,2.769,0,0,0,.9.1,7.719,7.719,0,0,0,1.5-.2,3.1,3.1,0,0,0,1.3-.6,7.636,7.636,0,0,0,.9-.9,2.663,2.663,0,0,0,.3-1.2V24.3Z"/>
        <path class="logoSvg" d="M180.3,20.2v.9H178v6.2a2,2,0,0,0,.2.9q.15.3.9.3h1.2v.9h-1.2a2.973,2.973,0,0,1-1.9-.4c-.4-.3-.5-.8-.5-1.6V21.1h-2v-.9h2V17.4h1.4v2.8h2.2Z"/>
        <path class="logoSvg" d="M185.9,16.6v1.8h-1.4V16.6Zm0,3.6v9.2h-1.4V20.2Z"/>
        <path class="logoSvg" d="M197.9,20.3a4.991,4.991,0,0,1,1.7,1.1,3.6,3.6,0,0,1,1,1.5,5.847,5.847,0,0,1,.4,1.9,4.058,4.058,0,0,1-.4,1.9,3.956,3.956,0,0,1-1,1.5,4.784,4.784,0,0,1-1.7,1,6.813,6.813,0,0,1-4.6,0,6.933,6.933,0,0,1-1.7-1,3.6,3.6,0,0,1-1-1.5,5.847,5.847,0,0,1-.4-1.9,4.058,4.058,0,0,1,.4-1.9,3.956,3.956,0,0,1,1-1.5,7.119,7.119,0,0,1,1.7-1.1,5.558,5.558,0,0,1,2.3-.4A5.867,5.867,0,0,1,197.9,20.3Zm-4.1.9a2.73,2.73,0,0,0-1.2.9,5.67,5.67,0,0,0-.8,1.3,3.926,3.926,0,0,0-.3,1.4,3.194,3.194,0,0,0,.3,1.4,3.528,3.528,0,0,0,.8,1.3,2.73,2.73,0,0,0,1.2.9,4.671,4.671,0,0,0,1.7.3,4.31,4.31,0,0,0,1.7-.3,2.73,2.73,0,0,0,1.2-.9,5.67,5.67,0,0,0,.8-1.3,3.926,3.926,0,0,0,.3-1.4,3.194,3.194,0,0,0-.3-1.4,3.528,3.528,0,0,0-.8-1.3,2.73,2.73,0,0,0-1.2-.9,4.671,4.671,0,0,0-1.7-.3A2.492,2.492,0,0,0,193.8,21.2Z"/>
        <path class="logoSvg" d="M206.1,20.2v1.6h0a3.151,3.151,0,0,1,1.4-1.4,5.45,5.45,0,0,1,2.2-.5,5.618,5.618,0,0,1,2,.3,3.991,3.991,0,0,1,1.3.7,4.129,4.129,0,0,1,.7,1.1,6.052,6.052,0,0,1,.2,1.5v5.9h-1.4V23.6a3.749,3.749,0,0,0-.1-1.1A2.24,2.24,0,0,0,211,21a5.212,5.212,0,0,0-1.4-.2,6.052,6.052,0,0,0-1.5.2,4.129,4.129,0,0,0-1.1.7,3.591,3.591,0,0,0-.7,1A2.768,2.768,0,0,0,206,24v5.4h-1.4V20.2Z"/>
        <path class="logoSvg" d="M22.1,0c-7.4,0-8.7,3.4-8.7,4.1V16c0,2.7-1.5,3.6-4.5,3.6S4.7,18.7,4.7,16V1.8H0V17.6c0,2.5,1.9,5.5,9,5.5a14.179,14.179,0,0,0,4.4-.6V42.4c0,1.1,1.5,4.3,8.7,4.3,3.9,0,9-1,9-5.5V19.9H22.7v4.7h3.7V39.7c0,2.7-1.3,3.5-4.4,3.5-3,0-4.2-.8-4.2-3.5V7.1c0-2.7,1.1-3.9,4.2-3.9,3,0,4.4,1.2,4.4,3.9v5h4.7V5.6C31.1,3,29.2,0,22.1,0Z"/>
    </g>
</svg>